<svg width="1419" height="976" viewBox="0 0 1419 976" fill="none" xmlns="http://www.w3.org/2000/svg">
<path opacity="0.1" d="M704.3 975.2C941.396 975.2 1133.6 950.531 1133.6 920.1C1133.6 889.669 941.396 865 704.3 865C467.204 865 275 889.669 275 920.1C275 950.531 467.204 975.2 704.3 975.2Z" fill="#34C3EA"/>
<path d="M643 531.4H765.6V903.8H643V531.4Z" fill="#0B4870"/>
<path d="M184.5 746.9H1224C1229.3 746.9 1233.6 742.6 1233.6 737.3V9.7001C1233.6 4.4001 1229.3 0.100098 1224 0.100098H184.5C179.2 0.100098 174.9 4.4001 174.9 9.7001V737.4C174.9 742.7 179.2 746.9 184.5 746.9Z" fill="#0E538C"/>
<path d="M670.1 683.5C670.1 702.4 685.4 717.7 704.3 717.7C723.2 717.7 738.5 702.4 738.5 683.5C738.5 664.6 723.2 649.4 704.3 649.4C685.4 649.3 670.1 664.6 670.1 683.5Z" fill="#163C47"/>
<path d="M428.5 859.5H980.1V920.1H428.5V859.5Z" fill="#0E538C"/>
<path d="M1194.3 611.148L212.3 611.148L212.3 36.6479L1194.3 36.6479V611.148Z" fill="#CCE9FF"/>
<path d="M255.1 79.3999H1149.9V134.4H255.1V79.3999Z" fill="#2A94F4"/>
<path d="M255.1 134.4H1149.9V473.6H255.1V134.4Z" fill="#F7F7F7"/>
<path d="M229.2 335.9H642.6V569H229.2V335.9Z" fill="#31A1F4"/>
<path d="M229.2 312.8H648.6V335.9H229.2V312.8Z" fill="#D3D3D3"/>
<path d="M418.8 366.3H580.4V369.1H418.8V366.3ZM247.9 355.9H615.4V358.7H247.9V355.9ZM247.9 366.3H409.5V369.1H247.9V366.3ZM588.2 366.3H615.4V369.1H588.2V366.3Z" fill="white"/>
<path d="M444.42 392.64H282.82V389.84H444.42V392.64Z" fill="white"/>
<path d="M615.324 403.112L247.824 403.112V400.312L615.324 400.312V403.112Z" fill="white"/>
<path d="M615.338 392.64H453.738V389.84H615.338V392.64Z" fill="white"/>
<path d="M274.99 392.64H247.79V389.84H274.99V392.64Z" fill="white"/>
<path d="M247.9 376.7H615.4V379.5H247.9V376.7ZM418.8 424.4H580.4V427.2H418.8V424.4ZM247.9 414H615.4V416.8H247.9V414ZM247.9 424.4H409.5V427.2H247.9V424.4ZM588.2 424.4H615.4V427.2H588.2V424.4Z" fill="white"/>
<path d="M444.42 450.83H282.82V448.03H444.42V450.83Z" fill="white"/>
<path d="M615.324 461.202L247.824 461.202V458.402L615.324 458.402V461.202Z" fill="white"/>
<path d="M615.338 450.83H453.738V448.03H615.338V450.83Z" fill="white"/>
<path d="M274.99 450.83H247.79V448.03H274.99V450.83Z" fill="white"/>
<path d="M247.9 434.8H615.4V437.6H247.9V434.8Z" fill="white"/>
<path d="M633.3 335.9H648.5V569H633.3V335.9Z" fill="#ADCFE0"/>
<path d="M679.3 232.4H1149.9V287.4H679.3V232.4Z" fill="#31A1F4"/>
<path d="M679.3 287.4H1149.9V568.9H679.3V287.4Z" fill="#F7F7F7"/>
<path d="M645.7 339.2H636.1C634.5 339.2 633.3 340.5 633.3 342V353.1C633.3 354.7 634.6 355.9 636.1 355.9H645.7C647.3 355.9 648.5 354.6 648.5 353.1V342C648.6 340.5 647.3 339.2 645.7 339.2Z" fill="#E9F8FF"/>
<path d="M815.093 642.462L853.406 592.325L982.999 691.357L944.686 741.494L815.093 642.462Z" fill="#FFBE55"/>
<path opacity="0.08" d="M815.093 642.462L853.406 592.325L982.999 691.357L944.686 741.494L815.093 642.462Z" fill="black"/>
<path d="M1191.5 870.9L1172.6 895.6C1160.4 911.6 1137.5 914.7 1121.5 902.4L916 745.4L979.2 662.8L1184.7 819.8C1200.7 832 1203.7 854.9 1191.5 870.9Z" fill="#FFBE55"/>
<path d="M600.2 743.7C774.777 743.7 916.3 602.177 916.3 427.6C916.3 253.023 774.777 111.5 600.2 111.5C425.623 111.5 284.1 253.023 284.1 427.6C284.1 602.177 425.623 743.7 600.2 743.7Z" fill="#FFBE55"/>
<mask id="mask0_22_57" style="mask-type:luminance" maskUnits="userSpaceOnUse" x="338" y="168" width="524" height="523">
<path d="M600.2 690.8C744.512 690.8 861.5 573.812 861.5 429.5C861.5 285.188 744.512 168.2 600.2 168.2C455.888 168.2 338.9 285.188 338.9 429.5C338.9 573.812 455.888 690.8 600.2 690.8Z" fill="white"/>
</mask>
<g mask="url(#mask0_22_57)">
<path d="M1066.94 793.666L2.23792 793.666V111.866L1066.94 111.866V793.666Z" fill="#CCE9FF"/>
<path d="M48.5999 106.9H1018.7V549.2H48.5999V106.9Z" fill="#F7F7F7"/>
<path d="M32.0999 304.4H766.7V718.5H32.0999V304.4Z" fill="#2A94F4"/>
<path d="M32.0999 263.5H777.3V304.5H32.0999V263.5Z" fill="#D3D3D3"/>
<path d="M369.1 358.5H656.2V363.5H369.1V358.5ZM65.2998 340H718.3V345H65.2998V340ZM65.2998 358.5H352.4V363.5H65.2998V358.5ZM670.1 358.5H718.4V363.5H670.1V358.5Z" fill="white"/>
<path d="M414.602 405.38L127.502 405.38V400.38L414.602 400.38V405.38Z" fill="white"/>
<path d="M718.378 423.968L65.3779 423.968V418.968L718.378 418.968V423.968Z" fill="white"/>
<path d="M718.38 405.38L431.28 405.38V400.38L718.38 400.38V405.38Z" fill="white"/>
<path d="M65.2998 377.1H718.3V382.1H65.2998V377.1ZM369.1 461.8H656.2V466.8H369.1V461.8ZM65.2998 443.2H718.3V448.2H65.2998V443.2ZM65.2998 461.8H352.4V466.8H65.2998V461.8ZM670.1 461.8H718.4V466.8H670.1V461.8Z" fill="white"/>
<path d="M414.602 508.646L127.502 508.646V503.646L414.602 503.646V508.646Z" fill="white"/>
<path d="M718.378 527.236L65.3779 527.236V522.236L718.378 522.236V527.236Z" fill="white"/>
<path d="M718.38 508.646L431.28 508.646V503.646L718.38 503.646V508.646Z" fill="white"/>
<path d="M65.2998 480.3H718.3V485.3H65.2998V480.3Z" fill="white"/>
<path d="M750.3 304.4H777.4V718.5H750.3V304.4Z" fill="#CCE9FF"/>
<path d="M774.5 310.3H753C751.4 310.3 750.2 311.6 750.2 313.1V337.1C750.2 338.7 751.5 339.9 753 339.9H774.5C776.1 339.9 777.3 338.6 777.3 337.1V313.1C777.3 311.6 776.1 310.3 774.5 310.3Z" fill="#F7F7F7"/>
</g>
</svg>
