<svg width="1920" height="1080" viewBox="0 0 1920 1080" fill="none" xmlns="http://www.w3.org/2000/svg">
<g clip-path="url(#clip0_19_2)">
<path opacity="0.1" d="M326.9 269.1C668.7 190.9 705.3 -0.0999607 926.2 3.92519e-05C1147.1 0.100039 1172 192.7 1376.3 124.6C1580.6 56.5 1770.3 108.3 1795.7 403.6C1821.1 698.9 1717.8 934.3 1165.3 827.8C612.8 721.3 690.9 996 442.4 960.2C193.9 924.5 -14.9001 347.3 326.9 269.1Z" fill="#2A94F4"/>
<path opacity="0.1" d="M954.3 1073.2C1191.4 1073.2 1383.6 1048.53 1383.6 1018.1C1383.6 987.669 1191.4 963 954.3 963C717.204 963 525 987.669 525 1018.1C525 1048.53 717.204 1073.2 954.3 1073.2Z" fill="#34C3EA"/>
<path d="M893 629.4H1015.6V1001.8H893V629.4Z" fill="#0B4870"/>
<path d="M434.5 844.9H1474C1479.3 844.9 1483.6 840.6 1483.6 835.3V107.7C1483.6 102.4 1479.3 98.1 1474 98.1H434.5C429.2 98.1 424.9 102.4 424.9 107.7V835.4C424.9 840.7 429.2 844.9 434.5 844.9Z" fill="#0E538C"/>
<path d="M920.1 781.5C920.1 800.4 935.4 815.7 954.3 815.7C973.2 815.7 988.5 800.4 988.5 781.5C988.5 762.6 973.2 747.4 954.3 747.4C935.4 747.3 920.1 762.6 920.1 781.5Z" fill="#163C47"/>
<path d="M678.5 957.5H1230.1V1018.1H678.5V957.5Z" fill="#0E538C"/>
<path d="M1444.3 709.148L462.3 709.148L462.3 134.648L1444.3 134.648V709.148Z" fill="#CCE9FF"/>
<path d="M505.1 177.4H1399.9V232.4H505.1V177.4Z" fill="#2A94F4"/>
<path d="M505.1 232.4H1399.9V571.6H505.1V232.4Z" fill="#F7F7F7"/>
<path d="M479.2 433.9H892.6V667H479.2V433.9Z" fill="#31A1F4"/>
<path d="M479.2 410.8H898.6V433.9H479.2V410.8Z" fill="#D3D3D3"/>
<path d="M668.8 464.3H830.4V467.1H668.8V464.3ZM497.9 453.9H865.4V456.7H497.9V453.9ZM497.9 464.3H659.5V467.1H497.9V464.3ZM838.2 464.3H865.4V467.1H838.2V464.3Z" fill="white"/>
<path d="M694.42 490.64H532.82V487.84H694.42V490.64Z" fill="white"/>
<path d="M865.324 501.112L497.824 501.112V498.312L865.324 498.312V501.112Z" fill="white"/>
<path d="M865.338 490.64H703.738V487.84H865.338V490.64Z" fill="white"/>
<path d="M524.99 490.64H497.79V487.84H524.99V490.64Z" fill="white"/>
<path d="M497.9 474.7H865.4V477.5H497.9V474.7ZM668.8 522.4H830.4V525.2H668.8V522.4ZM497.9 512H865.4V514.8H497.9V512ZM497.9 522.4H659.5V525.2H497.9V522.4ZM838.2 522.4H865.4V525.2H838.2V522.4Z" fill="white"/>
<path d="M694.42 548.83H532.82V546.03H694.42V548.83Z" fill="white"/>
<path d="M865.324 559.202H497.824V556.402H865.324V559.202Z" fill="white"/>
<path d="M865.338 548.83H703.738V546.03H865.338V548.83Z" fill="white"/>
<path d="M524.99 548.83H497.79V546.03H524.99V548.83Z" fill="white"/>
<path d="M497.9 532.8H865.4V535.6H497.9V532.8Z" fill="white"/>
<path d="M883.3 433.9H898.5V667H883.3V433.9Z" fill="#ADCFE0"/>
<path d="M929.3 330.4H1399.9V385.4H929.3V330.4Z" fill="#31A1F4"/>
<path d="M929.3 385.4H1399.9V666.9H929.3V385.4Z" fill="#F7F7F7"/>
<path d="M895.7 437.2H886.1C884.5 437.2 883.3 438.5 883.3 440V451.1C883.3 452.7 884.6 453.9 886.1 453.9H895.7C897.3 453.9 898.5 452.6 898.5 451.1V440C898.6 438.5 897.3 437.2 895.7 437.2Z" fill="#E9F8FF"/>
<path d="M1065.09 740.462L1103.41 690.325L1233 789.357L1194.69 839.494L1065.09 740.462Z" fill="#FFBE55"/>
<path opacity="0.08" d="M1065.09 740.462L1103.41 690.325L1233 789.357L1194.69 839.494L1065.09 740.462Z" fill="black"/>
<path d="M1441.5 968.9L1422.6 993.6C1410.4 1009.6 1387.5 1012.7 1371.5 1000.4L1166 843.4L1229.2 760.8L1434.7 917.8C1450.7 930 1453.7 952.9 1441.5 968.9Z" fill="#FFBE55"/>
<path d="M850.2 841.7C1024.78 841.7 1166.3 700.177 1166.3 525.6C1166.3 351.023 1024.78 209.5 850.2 209.5C675.623 209.5 534.1 351.023 534.1 525.6C534.1 700.177 675.623 841.7 850.2 841.7Z" fill="#FFBE55"/>
<mask id="mask0_19_2" style="mask-type:luminance" maskUnits="userSpaceOnUse" x="588" y="266" width="524" height="523">
<path d="M850.2 788.8C994.512 788.8 1111.5 671.812 1111.5 527.5C1111.5 383.188 994.512 266.2 850.2 266.2C705.888 266.2 588.9 383.188 588.9 527.5C588.9 671.812 705.888 788.8 850.2 788.8Z" fill="white"/>
</mask>
<g mask="url(#mask0_19_2)">
<path d="M1316.94 891.666L252.238 891.666V209.866L1316.94 209.866V891.666Z" fill="#CCE9FF"/>
<path d="M298.6 204.9H1268.7V647.2H298.6V204.9Z" fill="#F7F7F7"/>
<path d="M282.1 402.4H1016.7V816.5H282.1V402.4Z" fill="#2A94F4"/>
<path d="M282.1 361.5H1027.3V402.5H282.1V361.5Z" fill="#D3D3D3"/>
<path d="M619.1 456.5H906.2V461.5H619.1V456.5ZM315.3 438H968.3V443H315.3V438ZM315.3 456.5H602.4V461.5H315.3V456.5ZM920.1 456.5H968.4V461.5H920.1V456.5Z" fill="white"/>
<path d="M664.602 503.38L377.502 503.38V498.38L664.602 498.38V503.38Z" fill="white"/>
<path d="M968.378 521.968L315.378 521.968V516.968L968.378 516.968V521.968Z" fill="white"/>
<path d="M968.38 503.38L681.28 503.38V498.38L968.38 498.38V503.38Z" fill="white"/>
<path d="M315.3 475.1H968.3V480.1H315.3V475.1ZM619.1 559.8H906.2V564.8H619.1V559.8ZM315.3 541.2H968.3V546.2H315.3V541.2ZM315.3 559.8H602.4V564.8H315.3V559.8ZM920.1 559.8H968.4V564.8H920.1V559.8Z" fill="white"/>
<path d="M664.602 606.646H377.502V601.646H664.602V606.646Z" fill="white"/>
<path d="M968.378 625.236L315.378 625.236V620.236L968.378 620.236V625.236Z" fill="white"/>
<path d="M968.38 606.646H681.28V601.646H968.38V606.646Z" fill="white"/>
<path d="M315.3 578.3H968.3V583.3H315.3V578.3Z" fill="white"/>
<path d="M1000.3 402.4H1027.4V816.5H1000.3V402.4Z" fill="#CCE9FF"/>
<path d="M1024.5 408.3H1003C1001.4 408.3 1000.2 409.6 1000.2 411.1V435.1C1000.2 436.7 1001.5 437.9 1003 437.9H1024.5C1026.1 437.9 1027.3 436.6 1027.3 435.1V411.1C1027.3 409.6 1026.1 408.3 1024.5 408.3Z" fill="#F7F7F7"/>
</g>
</g>
<defs>
<clipPath id="clip0_19_2">
<rect width="1920" height="1080" fill="white"/>
</clipPath>
</defs>
</svg>
